<svg width="17" height="17" viewBox="0 0 17 17" fill="none" xmlns="http://www.w3.org/2000/svg">
<path d="M7.10702 12.5266C7.07655 12.6477 6.31484 15.5 2.12499 15.5C1.95923 15.5 1.80026 15.4341 1.68305 15.3169C1.56584 15.1997 1.49999 15.0408 1.49999 14.875C1.49999 10.6852 4.35234 9.92343 4.47343 9.89296C4.63432 9.85277 4.80459 9.87813 4.94678 9.96347C5.08897 10.0488 5.19144 10.1872 5.23163 10.348C5.27183 10.5089 5.24647 10.6792 5.16112 10.8214C5.07578 10.9636 4.93745 11.066 4.77655 11.1062C4.70624 11.1258 3.02499 11.6172 2.77968 14.2203C5.3828 13.975 5.87499 12.2969 5.8953 12.2187C5.93674 12.0581 6.04032 11.9204 6.18324 11.8361C6.32617 11.7518 6.49673 11.7277 6.65741 11.7691C6.8181 11.8106 6.95574 11.9142 7.04006 12.0571C7.12437 12.2 7.14846 12.3706 7.10702 12.5312V12.5266ZM14.3726 7.26093L14 7.63359V12.1906C14.0009 12.3554 13.9691 12.5187 13.9063 12.6711C13.8435 12.8235 13.7511 12.9618 13.6344 13.0781L10.9531 15.7578C10.8375 15.8743 10.7 15.9667 10.5484 16.0297C10.3969 16.0927 10.2344 16.1251 10.0703 16.125C9.93487 16.125 9.80033 16.1031 9.67187 16.0602C9.45131 15.9872 9.25556 15.854 9.10673 15.6756C8.95791 15.4973 8.86194 15.2808 8.82968 15.0508L8.41015 12.0437L4.95624 8.58984L1.95077 8.17031C1.72042 8.138 1.50364 8.04206 1.32484 7.89327C1.14604 7.74448 1.0123 7.54875 0.938667 7.3281C0.865035 7.10745 0.854433 6.87063 0.908053 6.64428C0.961673 6.41794 1.07739 6.21104 1.24218 6.04687L3.92187 3.36562C4.03818 3.24889 4.17654 3.15645 4.3289 3.09368C4.48126 3.03091 4.64458 2.99907 4.80937 3H9.3664L9.73905 2.62734C11.8234 0.543746 14.3344 0.453902 15.318 0.512496C15.6227 0.531015 15.9101 0.660426 16.126 0.876311C16.3419 1.0922 16.4713 1.37963 16.4898 1.68437C16.5469 2.66484 16.457 5.17656 14.3734 7.26093H14.3726ZM8.1164 4.25H4.80937L2.12499 6.93281L5.02734 7.3375L8.1164 4.25ZM12.75 8.88359L9.66171 11.9719L10.068 14.875L12.75 12.1906V8.88359Z" fill="white"/>
</svg>
